<svg width="151" height="116" viewBox="0 0 151 116" fill="none" xmlns="http://www.w3.org/2000/svg">
<g clip-path="url(#clip0_1_9828)">
<path d="M37.4467 44.5655C37.2021 44.5092 36.9545 44.4445 36.7111 44.3731L36.7641 44.1919C37.0041 44.2624 37.248 44.3261 37.4889 44.3815L37.4467 44.5655ZM35.9881 44.1379C35.7509 44.053 35.5126 43.9599 35.28 43.8613L35.3537 43.6875C35.5831 43.7848 35.818 43.8766 36.0518 43.9602L35.9881 44.1379ZM34.5885 43.545C34.3622 43.4337 34.1359 43.3145 33.916 43.1909L34.0085 43.0263C34.2255 43.1483 34.4486 43.2658 34.6718 43.3757L34.5885 43.545ZM33.2639 42.8003C33.0515 42.6651 32.8396 42.5219 32.634 42.375L32.7438 42.2214C32.9467 42.3665 33.1558 42.5077 33.3653 42.6411L33.2639 42.8003ZM32.0279 41.9165C31.8307 41.7587 31.6353 41.5937 31.4473 41.4262L31.5728 41.2852C31.7584 41.4506 31.9512 41.6134 32.1459 41.7691L32.0279 41.9165ZM30.8936 40.9055C30.7144 40.7278 30.5378 40.5429 30.3686 40.356L30.5085 40.2294C30.6754 40.4138 30.8497 40.5962 31.0264 40.7715L30.8936 40.9055ZM29.8738 39.7792C29.7147 39.583 29.559 39.3801 29.4112 39.1762L29.564 39.0655C29.7098 39.2667 29.8634 39.4668 30.0204 39.6603L29.8738 39.7792ZM28.9824 38.5485C28.8457 38.336 28.7133 38.1171 28.5891 37.898L28.7534 37.8049C28.8757 38.0209 29.0063 38.2368 29.1411 38.4464L28.9824 38.5485ZM28.2335 37.2261C28.1214 36.9989 28.015 36.7662 27.9172 36.5346L28.091 36.4611C28.1875 36.6894 28.2923 36.9187 28.4027 37.1426L28.2335 37.2261ZM26.4184 37.1226C26.1648 37.1047 25.909 37.0679 25.6583 37.0131L25.6985 36.8288C25.9404 36.8816 26.1871 36.917 26.4317 36.9344L26.4184 37.1226ZM27.1868 37.1198L27.1719 36.9315C27.4199 36.9118 27.6655 36.8727 27.9019 36.8153L27.9465 36.9987C27.7004 37.0585 27.4449 37.0992 27.1868 37.1198ZM24.9216 36.796C24.6808 36.7058 24.4461 36.5978 24.2238 36.4749L24.315 36.3097C24.5293 36.428 24.7556 36.5322 24.9877 36.6192L24.9216 36.796ZM28.6769 36.7553L28.6021 36.582C28.6683 36.5535 28.7339 36.5232 28.7988 36.4911C28.9533 36.4148 29.1048 36.3268 29.2489 36.2297L29.3544 36.3862C29.2033 36.4881 29.0445 36.5804 28.8824 36.6604C28.8144 36.6938 28.746 36.7254 28.6769 36.7553ZM23.5813 36.053C23.3766 35.8948 23.1853 35.7204 23.0126 35.5347L23.1508 35.4062C23.3165 35.5844 23.5002 35.7518 23.6967 35.9037L23.5813 36.053ZM29.9506 35.8953L29.8169 35.762C29.9953 35.583 30.1494 35.3907 30.275 35.1903L30.435 35.2905C30.3019 35.5028 30.1389 35.7063 29.9506 35.8953ZM27.6421 35.8256C27.6038 35.7172 27.5669 35.6084 27.5315 35.499C27.4887 35.3667 27.4504 35.2305 27.4177 35.0945L27.6013 35.0505C27.6328 35.1818 27.6698 35.3132 27.7111 35.4409C27.7459 35.5487 27.7822 35.6559 27.82 35.7626L27.6421 35.8256ZM22.5384 34.9277C22.4001 34.7148 22.2782 34.4862 22.176 34.2482L22.3494 34.1738C22.4473 34.4018 22.5642 34.6209 22.6967 34.8249L22.5384 34.9277ZM30.7574 34.5821L30.5762 34.5291C30.6363 34.3232 30.6668 34.1136 30.6669 33.9062C30.6669 33.8755 30.6662 33.8446 30.6649 33.8139L30.8535 33.8058C30.855 33.8393 30.8556 33.8727 30.8556 33.9062C30.8556 34.1316 30.8225 34.359 30.7574 34.5821ZM27.2931 34.336C27.2827 34.2132 27.2774 34.0921 27.2774 33.9761C27.2773 33.8338 27.2852 33.6949 27.3008 33.5632L27.4883 33.5855C27.4736 33.7098 27.4661 33.8412 27.4662 33.976C27.4662 34.0869 27.4712 34.2027 27.4811 34.3201L27.2931 34.336ZM21.9309 33.5192C21.8693 33.2732 21.8257 33.0184 21.8015 32.7616L21.9894 32.7439C22.0128 32.9912 22.0546 33.2366 22.1139 33.4733L21.9309 33.5192ZM30.4807 33.1287C30.3753 32.9186 30.2259 32.7203 30.0489 32.5553L30.1776 32.4172C30.3709 32.5975 30.5339 32.8141 30.6494 33.044L30.4807 33.1287ZM27.677 32.889L27.5061 32.8089C27.6248 32.5553 27.7897 32.3461 27.996 32.1869L28.1112 32.3364C27.929 32.477 27.7829 32.6628 27.677 32.889ZM29.4465 32.1687C29.264 32.0964 29.0804 32.0598 28.901 32.0598C28.9009 32.0598 28.9007 32.0598 28.9004 32.0598C28.8511 32.0598 28.8017 32.0626 28.7526 32.0683L28.7306 31.8808C28.787 31.8742 28.8437 31.8711 28.9003 31.8711C28.9005 31.8711 28.9007 31.8711 28.901 31.8711C29.1044 31.8711 29.3111 31.9122 29.516 31.9932L29.4465 32.1687ZM21.9738 32.0032L21.7852 31.9936C21.7981 31.7388 21.8297 31.4824 21.879 31.2314L22.0643 31.2679C22.0166 31.5099 21.9861 31.7573 21.9738 32.0032ZM22.2594 30.5535L22.0816 30.4906C22.1675 30.2475 22.2717 30.0109 22.3915 29.7874L22.558 29.8766C22.4426 30.0917 22.3422 30.3195 22.2594 30.5535ZM22.9581 29.2552L22.8083 29.1403C22.9657 28.9349 23.1402 28.7435 23.327 28.5712L23.4549 28.71C23.2762 28.8749 23.109 29.0583 22.9581 29.2552Z" fill="#D2D2D2"/>
<path d="M27.2963 29.7723H19.0061C17.8033 29.7723 16.8281 28.7972 16.8281 27.5943V26.2878C16.8281 25.0849 17.8032 24.1097 19.0061 24.1097H27.2963C28.4992 24.1097 29.4744 25.0849 29.4744 26.2878V27.5943C29.4744 28.7972 28.4993 29.7723 27.2963 29.7723Z" fill="#EDEDED"/>
<path d="M20.2137 27.8003C20.6888 27.789 21.0647 27.3947 21.0534 26.9196C21.0421 26.4445 20.6478 26.0686 20.1727 26.0799C19.6976 26.0912 19.3217 26.4855 19.333 26.9606C19.3443 27.4357 19.7386 27.8116 20.2137 27.8003Z" fill="white"/>
<path d="M23.1895 27.8023C23.6643 27.7807 24.0317 27.3784 24.0102 26.9037C23.9886 26.4289 23.5863 26.0615 23.1116 26.083C22.6368 26.1046 22.2694 26.5069 22.2909 26.9816C22.3125 27.4564 22.7148 27.8238 23.1895 27.8023Z" fill="white"/>
<path d="M26.1485 27.8023C26.6233 27.7808 26.9907 27.3784 26.9691 26.9037C26.9476 26.4289 26.5453 26.0615 26.0706 26.0831C25.5958 26.1046 25.2284 26.5069 25.2499 26.9817C25.2714 27.4564 25.6738 27.8238 26.1485 27.8023Z" fill="white"/>
<path d="M36.0781 14.2762V55.4925C36.0781 58.132 38.2178 60.2717 40.8573 60.2717H110.139C112.778 60.2717 114.918 58.132 114.918 55.4925V14.2762H36.0781Z" fill="white"/>
<path d="M110.14 60.4604H40.8586C38.1192 60.4604 35.8906 58.2317 35.8906 55.4925V14.0875H115.108V55.4925C115.108 58.2317 112.879 60.4604 110.14 60.4604ZM36.2681 14.465V55.4925C36.2681 58.0237 38.3274 60.083 40.8586 60.083H110.14C112.671 60.083 114.731 58.0237 114.731 55.4925V14.465H36.2681Z" fill="#D2D2D2"/>
<path d="M114.918 11.9221C114.918 9.28261 112.778 7.14294 110.139 7.14294H40.8573C38.2178 7.14294 36.0781 9.28261 36.0781 11.9221V14.2763H114.918V11.9221Z" fill="#D2D2D2"/>
<path d="M115.108 14.465H35.8906V11.922C35.8906 9.18271 38.1192 6.9541 40.8586 6.9541H110.14C112.879 6.9541 115.108 9.18271 115.108 11.922L115.108 14.465ZM36.2681 14.0875H114.731V11.922C114.731 9.39086 112.671 7.3316 110.14 7.3316H40.8586C38.3275 7.3316 36.2681 9.39079 36.2681 11.922V14.0875Z" fill="#D2D2D2"/>
<path d="M46.3942 11.0059C46.5572 10.0725 45.9326 9.18361 44.9991 9.02063C44.0657 8.85764 43.1768 9.48224 43.0139 10.4157C42.8509 11.3492 43.4755 12.238 44.4089 12.401C45.3424 12.564 46.2312 11.9394 46.3942 11.0059Z" fill="white"/>
<path d="M52.2922 10.9857C52.445 10.0505 51.8108 9.16853 50.8757 9.01568C49.9405 8.86284 49.0585 9.49704 48.9057 10.4322C48.7528 11.3674 49.387 12.2494 50.3222 12.4022C51.2573 12.5551 52.1393 11.9209 52.2922 10.9857Z" fill="white"/>
<path d="M58.1937 10.9772C58.3411 10.0412 57.7019 9.16286 56.7659 9.01542C55.8298 8.86798 54.9515 9.50724 54.8041 10.4433C54.6566 11.3793 55.2959 12.2576 56.2319 12.405C57.1679 12.5525 58.0462 11.9132 58.1937 10.9772Z" fill="white"/>
<path d="M103.812 12.2825H95.1295C94.2608 12.2825 93.5566 11.5783 93.5566 10.7096C93.5566 9.84091 94.2609 9.13672 95.1295 9.13672H103.812C104.681 9.13672 105.385 9.84091 105.385 10.7096C105.385 11.5782 104.681 12.2825 103.812 12.2825Z" fill="white"/>
<path d="M86.0222 19.6556H64.9766V21.9206H86.0222V19.6556Z" fill="#599BFF"/>
<path d="M100.665 48.5029H50.332V51.6487H100.665V48.5029Z" fill="white"/>
<path d="M100.76 51.7431H50.2383V48.4086H100.76L100.76 51.7431ZM50.427 51.5544H100.572V48.5973H50.427V51.5544Z" fill="#D2D2D2"/>
<path d="M77.0836 49.3294H50.332V50.8221H77.0836V49.3294Z" fill="#D2D2D2"/>
<path d="M60.25 35.0448V32.072L61.7364 33.5584L60.25 35.0448Z" fill="#FFD966"/>
<path d="M63.0801 35.0448V32.072L64.5665 33.5584L63.0801 35.0448Z" fill="#FFD966"/>
<path d="M87.5156 34.8151V31.8423L89.002 33.3286L87.5156 34.8151Z" fill="#FFD966"/>
<path d="M90.3477 34.8151V31.8423L91.8341 33.3286L90.3477 34.8151Z" fill="#FFD966"/>
<path d="M54.8793 40.2384H45.9638C45.493 40.2384 45.1113 39.8567 45.1113 39.3859V28.049C45.1113 27.5782 45.493 27.1965 45.9638 27.1965H54.8793C55.3501 27.1965 55.7318 27.5782 55.7318 28.049V39.3859C55.7318 39.8567 55.3501 40.2384 54.8793 40.2384Z" fill="white"/>
<path d="M54.878 40.3329H45.9625C45.4405 40.3329 45.0156 39.9081 45.0156 39.386V28.049C45.0156 27.5269 45.4404 27.1021 45.9625 27.1021H54.878C55.4001 27.1021 55.825 27.5269 55.825 28.049V39.386C55.825 39.9081 55.4001 40.3329 54.878 40.3329ZM45.9625 27.2909C45.5445 27.2909 45.2044 27.6309 45.2044 28.049V39.386C45.2044 39.8041 45.5444 40.1442 45.9625 40.1442H54.878C55.2961 40.1442 55.6362 39.8042 55.6362 39.386V28.049C55.6362 27.631 55.2962 27.2909 54.878 27.2909H45.9625Z" fill="black"/>
<path d="M48.4081 28.676H46.7266V29.4158H48.4081V28.676Z" fill="#599BFF"/>
<path d="M52.1626 28.9752H49.3379V29.1167H52.1626V28.9752Z" fill="black"/>
<path d="M48.5335 31.1123H46.7266V31.2538H48.5335V31.1123Z" fill="black"/>
<path d="M50.3331 32.1397H46.7266V32.2813H50.3331V32.1397Z" fill="black"/>
<path d="M54.1166 33.1671H46.7266V33.3087H54.1166V33.1671Z" fill="black"/>
<path d="M52.9882 34.1947H46.7266V34.3363H52.9882V34.1947Z" fill="black"/>
<path d="M49.861 35.2221H46.7266V35.3637H49.861V35.2221Z" fill="black"/>
<path d="M54.1166 36.2496H46.7266V36.3911H54.1166V36.2496Z" fill="black"/>
<path d="M54.1167 37.277H52.1328V37.4186H54.1167V37.277Z" fill="black"/>
<path d="M83.0808 31.0074H69.0273V39.8952H83.0808V31.0074Z" fill="black"/>
<path d="M80.5853 39.1248H71.5214C71.0716 39.1248 70.707 38.7602 70.707 38.3104V28.1174C70.707 27.6677 71.0716 27.3031 71.5214 27.3031H80.5853C81.0351 27.3031 81.3996 27.6677 81.3996 28.1174V38.3104C81.3996 38.7602 81.0351 39.1248 80.5853 39.1248Z" fill="white"/>
<path d="M80.586 39.2192H71.5221C71.021 39.2192 70.6133 38.8115 70.6133 38.3104V28.1175C70.6133 27.6164 71.021 27.2088 71.5221 27.2088H80.586C81.087 27.2088 81.4947 27.6164 81.4947 28.1175V38.3104C81.4948 38.8115 81.087 39.2192 80.586 39.2192ZM71.5221 27.3975C71.125 27.3975 70.802 27.7204 70.802 28.1175V38.3104C70.802 38.7075 71.1251 39.0304 71.5221 39.0304H80.586C80.9831 39.0304 81.306 38.7075 81.306 38.3104V28.1175C81.306 27.7204 80.9831 27.3975 80.586 27.3975H71.5221Z" fill="black"/>
<path d="M79.1089 29.8647H72.8945V30.0062H79.1089V29.8647Z" fill="black"/>
<path d="M77.8242 30.9785H72.8945V31.1201H77.8242V30.9785Z" fill="black"/>
<path d="M79.214 32.0923H72.8945V32.2339H79.214V32.0923Z" fill="black"/>
<path d="M69.0273 31.0076L74.7047 35.0303L69.0273 39.8952" fill="#FF5970"/>
<path d="M83.0804 31.0076L77.3633 35.0701L83.0804 39.8952" fill="#FF5970"/>
<path opacity="0.2" d="M83.0809 38.6257V39.8953H81.1119L78.4355 34.2969L83.0809 38.6257Z" fill="black"/>
<path opacity="0.2" d="M69.0273 38.6257V39.8953H70.9964L73.6727 34.2969L69.0273 38.6257Z" fill="black"/>
<path d="M73.5258 34.4533L69.0273 39.8953H83.0808L78.5824 34.4533C78.1591 33.9412 77.574 33.6516 76.9624 33.6516H75.1456C74.5342 33.6516 73.9491 33.9412 73.5258 34.4533Z" fill="#FF5970"/>
<path d="M104.554 36.7518C106.444 34.8614 106.444 31.7965 104.554 29.9061C102.663 28.0157 99.5984 28.0157 97.708 29.9061C95.8176 31.7965 95.8176 34.8614 97.708 36.7518C99.5984 38.6422 102.663 38.6422 104.554 36.7518Z" fill="white"/>
<path d="M101.13 38.2637C98.4091 38.2637 96.1953 36.0498 96.1953 33.3286C96.1953 30.6074 98.409 28.3936 101.13 28.3936C103.852 28.3936 106.065 30.6074 106.065 33.3286C106.065 36.0498 103.852 38.2637 101.13 38.2637ZM101.13 28.5823C98.5132 28.5823 96.3841 30.7115 96.3841 33.3286C96.3841 35.9457 98.5132 38.0749 101.13 38.0749C103.748 38.0749 105.877 35.9457 105.877 33.3286C105.877 30.7114 103.748 28.5823 101.13 28.5823Z" fill="black"/>
<path d="M101.131 33.2906C101.665 33.2906 102.098 32.7767 102.098 32.1427C102.098 31.5087 101.665 30.9948 101.131 30.9948C100.597 30.9948 100.164 31.5087 100.164 32.1427C100.164 32.7767 100.597 33.2906 101.131 33.2906Z" fill="black"/>
<path d="M103.225 35.6625H99.0352V35.652C99.0352 34.6851 99.6771 33.8357 100.607 33.5718L101.105 33.4304L101.64 33.5786C102.577 33.8381 103.225 34.6906 103.225 35.6625Z" fill="black"/>
<path d="M101.691 32.8038H100.566V33.9003H101.691V32.8038Z" fill="black"/>
<path d="M104.931 31.6255C106.522 31.6255 107.813 30.3352 107.813 28.7436C107.813 27.1519 106.522 25.8617 104.931 25.8617C103.339 25.8617 102.049 27.1519 102.049 28.7436C102.049 30.3352 103.339 31.6255 104.931 31.6255Z" fill="#FF5970"/>
<path d="M103.436 29.4128C103.496 29.4189 103.548 29.4189 103.642 29.4128C103.784 29.4034 103.93 29.3631 104.039 29.2886C104.17 29.1984 104.257 29.068 104.294 28.9157L104.284 28.9127C104.194 29.0058 104.064 29.0587 103.881 29.0587C103.539 29.0587 103.25 28.8195 103.25 28.4281C103.25 28.0335 103.567 27.7012 104.011 27.7012C104.53 27.7012 104.775 28.0988 104.775 28.571C104.775 28.9904 104.642 29.2978 104.421 29.4998C104.229 29.6737 103.965 29.7701 103.651 29.7825C103.57 29.7887 103.489 29.7856 103.436 29.7825V29.4128ZM103.722 28.4002C103.722 28.574 103.816 28.7231 104.008 28.7231C104.136 28.7231 104.226 28.661 104.269 28.5896C104.284 28.5616 104.294 28.5305 104.294 28.4716C104.294 28.2572 104.213 28.046 103.999 28.046C103.837 28.0461 103.719 28.1888 103.722 28.4002Z" fill="white"/>
<path d="M105.96 28.1019V28.7791H106.609V29.0711H105.96V29.7545H105.655V29.0711H105.006V28.7791H105.655V28.1019H105.96Z" fill="white"/>
<path d="M104.527 116.165C104.509 116.165 104.491 116.163 104.472 116.158C104.373 116.127 104.316 116.022 104.346 115.922L113.016 87.0698C113.046 86.9701 113.149 86.9133 113.251 86.9433C113.351 86.9734 113.407 87.0786 113.377 87.1785L104.707 116.031C104.683 116.113 104.608 116.165 104.527 116.165Z" fill="black"/>
<path d="M129.4 116.165C129.318 116.165 129.244 116.113 129.219 116.031L120.549 87.1785C120.519 87.0786 120.576 86.9734 120.675 86.9433C120.776 86.9133 120.88 86.9701 120.911 87.0698L129.581 115.922C129.611 116.022 129.554 116.127 129.454 116.158C129.436 116.163 129.418 116.165 129.4 116.165Z" fill="black"/>
<path d="M101.797 88.3902L121.322 88.2916C124.899 88.2736 128.057 85.9544 129.145 82.5473L133.121 66.0896L118.555 60.5466L101.797 88.3902Z" fill="#EDEDED"/>
<path d="M101.463 88.5806L118.475 60.314L118.623 60.3702L133.344 65.9725L129.329 82.5917C128.209 86.1007 124.994 88.4619 121.324 88.4805L101.463 88.5806ZM118.636 60.7792L102.133 88.1997L121.322 88.103C124.828 88.0853 127.899 85.8295 128.966 82.4901L132.9 66.2069L118.636 60.7792Z" fill="black"/>
<path d="M62.6198 91.6154H49.6641V85.7157H62.6198V91.6154ZM50.0416 91.2379H62.2423V86.0932H50.0416V91.2379Z" fill="#D2D2D2"/>
<path d="M55.8697 97.1375H42.9141V91.2379H55.8697V97.1375ZM43.2916 96.76H55.4922V91.6154H43.2916V96.76Z" fill="#D2D2D2"/>
<path d="M131.745 27.8453C128.745 27.8453 126.288 30.2779 126.312 33.2785C126.322 34.5039 126.652 35.5735 127.454 36.533C127.124 37.2723 126.215 37.8508 125.256 38.2594C126.605 38.5778 127.863 38.3103 128.695 37.7747C129.565 38.3658 130.614 38.7116 131.745 38.7116C134.746 38.7116 137.179 36.2791 137.179 33.2784C137.179 30.2778 134.746 27.8453 131.745 27.8453Z" fill="#EDEDED"/>
<path d="M131.771 35.3387L129.907 33.0745C129.867 33.0262 129.874 32.9548 129.922 32.915C129.97 32.8754 130.042 32.882 130.082 32.9305L131.726 34.9275L133.636 31.1695C133.664 31.1136 133.733 31.0919 133.788 31.1198C133.844 31.1482 133.866 31.2164 133.838 31.2721L131.771 35.3387Z" fill="black"/>
<path d="M91.439 107.066L88.6214 115.893L77.4082 110.994C79.2013 108.642 82.3157 108.076 84.8166 108.831L85.8548 104.725L91.439 107.066Z" fill="#929292"/>
<path d="M122.532 71.7738L122.589 78.0306L101.023 85.8316L92.4668 108.392L83.0293 104.617L87.9316 82.6807C88.304 81.0333 89.0652 79.4991 90.1517 78.206C91.8431 76.1927 94.2233 74.881 96.8288 74.5264L115.43 71.9945L122.532 71.7738Z" fill="#FF5970"/>
<path d="M95.3189 106.549L92.3228 115.935L79.7305 110.726C81.9182 108.678 84.4439 108.136 87.2915 109.031L89.0662 104.018L95.3189 106.549Z" fill="#D2D2D2"/>
<path d="M126.884 77.4641C126.918 81.2863 123.919 84.4498 120.099 84.6177L105.318 85.2652L95.9121 109.714L94.7098 109.233L88.7547 106.851L86.4746 105.939L92.794 79.6083C93.5263 76.9526 95.7158 74.9537 98.4244 74.4611L111.707 72.0451L113.371 71.7431L126.826 71.2071L126.863 75.1802L126.884 77.4641Z" fill="#FF5970"/>
<path opacity="0.2" d="M126.864 75.1802L111.707 72.0451L113.372 71.7431L126.826 71.2071L126.864 75.1802Z" fill="black"/>
<path d="M86.4729 106.051C86.4645 106.051 86.4558 106.05 86.4471 106.048C86.3862 106.034 86.3483 105.973 86.3623 105.912L92.5048 79.4187C92.747 78.3744 93.2471 77.3953 93.9512 76.5869C94.9292 75.4638 96.275 74.6999 97.7404 74.4356L101.264 73.8002C101.326 73.7902 101.384 73.8301 101.395 73.8916C101.406 73.9531 101.365 74.0119 101.304 74.0232L97.7805 74.6586C96.3657 74.9137 95.0663 75.6512 94.1219 76.7356C93.4423 77.5162 92.9593 78.4616 92.7256 79.4699L86.5831 105.964C86.571 106.016 86.5243 106.051 86.4729 106.051Z" fill="black"/>
<path d="M88.5448 111.473C88.4777 111.473 88.4128 111.437 88.3787 111.374L87.1518 109.109C87.102 109.017 87.1361 108.903 87.2278 108.853C87.3196 108.804 87.434 108.838 87.4836 108.929L88.7105 111.194C88.7603 111.286 88.7262 111.401 88.6345 111.45C88.606 111.466 88.5752 111.473 88.5448 111.473Z" fill="black"/>
<path d="M94.9485 104.754C93.6509 104.097 92.5808 103.087 91.3776 102.285C90.2657 101.543 89.0196 101.039 87.7085 100.795L87.6602 100.997C89.0546 101.259 90.3976 101.819 91.5922 102.66C92.8096 103.517 93.9307 104.554 95.3208 105.132C96.0282 105.427 96.7686 105.556 97.5124 105.553L97.5899 105.351C96.7138 105.371 95.8285 105.199 94.9485 104.754Z" fill="white"/>
<path d="M118.919 41.6073H114.176V48.0248H118.919V41.6073Z" fill="#FF8F78"/>
<path d="M117.989 44.112C117.445 45.2539 115.637 46.6809 114.176 47.2962V43.608L117.989 44.112Z" fill="black"/>
<path d="M118.68 41.6147L118.529 42.2301L118.012 44.3252C117.942 44.3724 117.869 44.4196 117.789 44.4649C116.88 44.9915 115.349 45.4143 114.177 45.3803C113.592 45.3633 113.097 45.235 112.81 44.9481C112.419 44.5574 112.167 43.8288 112.006 43.0039C111.932 42.6283 111.878 42.2338 111.836 41.8394C111.747 40.9843 111.727 40.1368 111.727 39.529C111.725 38.9873 111.742 38.6363 111.742 38.6363L114.966 37.0696L118.127 37.9907L118.408 39.8367L118.554 40.7861L118.678 41.6072L118.68 41.6147Z" fill="#FF8F78"/>
<path d="M119.219 40.7701C120.486 36.4871 119.312 33.3785 113.417 35.5891C108.351 32.9871 107.384 42.9576 116.433 38.3063C117.26 38.8583 117.911 39.6318 118.252 40.7932L119.219 40.7701Z" fill="black"/>
<path d="M119.85 41.4443C120.115 40.8015 119.846 40.0814 119.251 39.836C118.655 39.5906 117.957 39.9127 117.692 40.5555C117.428 41.1983 117.696 41.9184 118.292 42.1638C118.887 42.4092 119.585 42.0871 119.85 41.4443Z" fill="#FF8F78"/>
<path d="M113.583 42.5257C113.566 42.5257 113.549 42.5215 113.534 42.5125C113.508 42.4967 113.481 42.4819 113.454 42.4672C113.291 42.3778 113.067 42.2552 113.197 41.9652C113.24 41.8688 113.303 41.8034 113.358 41.7456C113.445 41.656 113.519 41.5787 113.536 41.3851C113.54 41.3332 113.587 41.2943 113.638 41.2992C113.69 41.3038 113.729 41.3495 113.724 41.4015C113.701 41.6615 113.592 41.7756 113.495 41.8764C113.443 41.9298 113.399 41.9759 113.369 42.0422C113.316 42.1612 113.355 42.1976 113.545 42.3017C113.574 42.3174 113.603 42.3334 113.631 42.3503C113.676 42.3769 113.691 42.4349 113.664 42.4797C113.646 42.5093 113.615 42.5257 113.583 42.5257Z" fill="black"/>
<path d="M114.227 40.1588C114.182 40.2968 114.484 40.3408 114.886 40.3785C115.288 40.4163 115.71 40.5202 115.719 40.425C115.728 40.3299 115.357 40.012 114.955 39.9743C114.553 39.9366 114.3 39.9322 114.227 40.1588Z" fill="black"/>
<path d="M113.2 40.3231C113.227 40.4622 112.969 40.4948 112.625 40.5172C112.282 40.5396 111.916 40.6274 111.916 40.5322C111.916 40.4372 112.253 40.1344 112.597 40.112C112.94 40.0895 113.155 40.0947 113.2 40.3231Z" fill="black"/>
<path d="M113.916 43.4439C113.751 43.4439 113.586 43.4112 113.431 43.3338C113.384 43.3104 113.366 43.2537 113.389 43.2071C113.412 43.1605 113.47 43.1421 113.515 43.1649C113.978 43.3961 114.58 43.1386 114.819 42.8718C114.854 42.833 114.913 42.8299 114.952 42.8644C114.991 42.8992 114.994 42.9589 114.959 42.9977C114.754 43.2272 114.339 43.4439 113.916 43.4439Z" fill="black"/>
<path d="M114.699 41.4405C114.829 41.4405 114.935 41.3032 114.935 41.1338C114.935 40.9643 114.829 40.827 114.699 40.827C114.569 40.827 114.463 40.9643 114.463 41.1338C114.463 41.3032 114.569 41.4405 114.699 41.4405Z" fill="black"/>
<path d="M112.763 41.4405C112.894 41.4405 112.999 41.3032 112.999 41.1338C112.999 40.9643 112.894 40.827 112.763 40.827C112.633 40.827 112.527 40.9643 112.527 41.1338C112.527 41.3032 112.633 41.4405 112.763 41.4405Z" fill="black"/>
<path opacity="0.4" d="M115.988 42.518C116.314 42.518 116.578 42.2539 116.578 41.9281C116.578 41.6023 116.314 41.3382 115.988 41.3382C115.663 41.3382 115.398 41.6023 115.398 41.9281C115.398 42.2539 115.663 42.518 115.988 42.518Z" fill="#FF5970"/>
<path opacity="0.4" d="M112.497 42.4226C112.497 42.7152 112.285 42.9568 112.008 43.004C111.934 42.6283 111.879 42.2339 111.838 41.8394C111.861 41.8356 111.885 41.8337 111.908 41.8337C112.232 41.8337 112.497 42.098 112.497 42.4226Z" fill="#FF5970"/>
<path d="M118.512 41.7158C118.469 41.7158 118.43 41.6863 118.42 41.6426C118.332 41.2605 118.38 40.9098 118.553 40.6805C118.674 40.5197 118.846 40.429 119.05 40.4182C119.101 40.417 119.146 40.4555 119.149 40.5076C119.152 40.5597 119.112 40.604 119.06 40.6068C118.913 40.6145 118.79 40.6793 118.704 40.7941C118.565 40.9787 118.528 41.2726 118.604 41.6002C118.616 41.651 118.584 41.7017 118.533 41.7134C118.526 41.715 118.519 41.7158 118.512 41.7158Z" fill="black"/>
<path d="M136.524 64.0383L128.344 64.0043V70.8012C128.344 70.973 128.321 71.1391 128.28 71.2976C128.059 72.13 127.298 72.7435 126.396 72.7378L108.551 72.6038C107.54 72.5962 106.753 71.7204 106.855 70.7125L107.519 64.1931L103.178 57.87L104.195 54.2441C104.916 51.6752 106.873 49.6367 109.41 48.8119L114.222 47.251L116.648 48.0153L118.341 46.9248L123.919 47.6378C126.738 47.9983 129.208 49.6932 130.56 52.1923L135.639 61.5883C136.056 62.3584 136.352 63.1852 136.524 64.0383Z" fill="#FFD966"/>
<path d="M111.658 60.8558L112.757 60.8297L122.194 56.4304C122.415 56.3276 122.51 56.0656 122.408 55.8451C122.305 55.6246 122.043 55.5292 121.822 55.632L112.385 60.0313L111.658 60.8558Z" fill="black"/>
<path d="M114.182 46.5745L116.614 48.0378L114.728 49.7612L112.105 47.9901L114.182 46.5745Z" fill="#FFD966"/>
<path d="M116.615 48.0378L118.598 49.541L120.411 47.1722L118.933 46.1656L116.615 48.0378Z" fill="#FFD966"/>
<path d="M114.738 49.8401L112.044 48.0851C111.991 48.0509 111.976 47.9807 112.011 47.9284C112.045 47.8761 112.115 47.8615 112.167 47.8953L114.718 49.5564L116.608 47.8928L118.606 49.3527L120.32 47.1036C120.358 47.0538 120.429 47.0442 120.479 47.0822C120.529 47.1201 120.538 47.1912 120.501 47.2409L118.652 49.6664L116.621 48.1829L114.738 49.8401Z" fill="black"/>
<path opacity="0.2" d="M128.344 64.6083V70.8012C128.344 70.973 128.321 71.1391 128.28 71.2976C125.191 69.7775 122.283 67.3778 119.473 64.5083L128.344 64.6083Z" fill="black"/>
<path d="M121.863 59.0966L118.521 56.3333C118.318 56.1652 118.031 56.1434 117.805 56.2786L115.173 57.8271C115.075 57.885 115.001 57.9769 114.966 58.0854L114.643 59.0731C114.447 59.4493 114.378 59.8677 114.367 60.3054C114.325 60.4927 114.453 60.6757 114.643 60.7011L114.595 61.7374C114.582 62.003 114.78 62.2318 115.044 62.2583L115.188 62.8736C115.248 63.1282 115.527 63.2637 115.764 63.1535L116.979 62.5886L119.472 64.5081L122.028 62.3763L121.863 59.0966Z" fill="#FF8F78"/>
<path d="M114.594 59.2083C114.549 59.2083 114.506 59.1811 114.488 59.1365C114.465 59.0785 114.494 59.0126 114.552 58.9896L116.851 58.0791C116.909 58.0558 116.975 58.0844 116.997 58.1426C117.021 58.2007 116.992 58.2665 116.934 58.2896L114.635 59.2001C114.622 59.2057 114.608 59.2083 114.594 59.2083Z" fill="black"/>
<path d="M114.643 60.8143C114.598 60.8143 114.556 60.788 114.538 60.7445C114.514 60.6868 114.541 60.6204 114.599 60.5965L116.298 59.8887C116.355 59.8648 116.422 59.892 116.446 59.9497C116.47 60.0074 116.443 60.0737 116.385 60.0977L114.686 60.8055C114.672 60.8114 114.657 60.8143 114.643 60.8143Z" fill="black"/>
<path d="M115.043 62.3713C115.005 62.3713 114.968 62.3521 114.947 62.3175C114.914 62.2641 114.93 62.1943 114.984 62.1617L116.391 61.2966C116.445 61.2638 116.515 61.2808 116.547 61.3337C116.58 61.387 116.563 61.4568 116.51 61.4894L115.102 62.3545C115.084 62.366 115.063 62.3713 115.043 62.3713Z" fill="black"/>
<path d="M136.692 66.0784C136.662 66.9863 136.324 67.8262 135.775 68.4868C135.224 69.1494 134.459 69.6326 133.572 69.8289C133.289 69.8911 133.004 69.9213 132.717 69.9213C132.172 69.9213 131.628 69.81 131.122 69.5891L119.473 64.508L121.864 59.0965L136.524 64.038C136.66 64.7062 136.717 65.3913 136.692 66.0784Z" fill="#FFD966"/>
<path d="M132.837 63.1091C132.824 63.1091 132.811 63.1069 132.799 63.1025L121.825 59.2032C121.767 59.1822 121.736 59.1175 121.757 59.0585C121.778 58.9997 121.842 58.9689 121.901 58.9897L132.875 62.889C132.933 62.91 132.964 62.9747 132.943 63.0337C132.927 63.0801 132.883 63.1091 132.837 63.1091Z" fill="black"/>
<path d="M108.12 62.6115C108.061 62.6115 108.011 62.5655 108.008 62.5055L107.5 54.4911C107.496 54.4286 107.544 54.3749 107.606 54.3709C107.667 54.3655 107.722 54.4143 107.726 54.4767L108.234 62.4911C108.238 62.5536 108.19 62.6074 108.128 62.6113C108.125 62.6115 108.123 62.6115 108.12 62.6115Z" fill="black"/>
<path d="M127.922 61.2893C127.874 61.2893 127.829 61.2583 127.814 61.21L125.785 54.7679C125.766 54.7083 125.799 54.6447 125.858 54.6259C125.918 54.6064 125.982 54.6402 126.001 54.6999L128.03 61.1418C128.048 61.2015 128.015 61.2651 127.956 61.2839C127.944 61.2875 127.933 61.2893 127.922 61.2893Z" fill="black"/>
<path d="M96.9492 56.926L107.897 57.1147L115.258 69.8553L104.027 69.6665L96.9492 56.926Z" fill="#599BFF"/>
<path d="M100.824 56.831L101.241 57.6211C101.283 57.7008 101.364 57.7515 101.454 57.7538L103.706 57.8111C103.887 57.8157 104.012 57.6315 103.941 57.4647L103.612 56.6929C103.574 56.6038 103.488 56.5449 103.391 56.5417L101.052 56.4663C100.861 56.4601 100.735 56.6622 100.824 56.831Z" fill="black"/>
<path d="M98.5068 62.6344C101.316 60.807 104.461 59.072 103.777 61.1571C104.585 61.0144 104.927 61.4663 104.374 62.232C105.216 62.1549 105.429 62.6338 104.36 63.8571C106.009 63.6552 104.632 65.2831 101.88 67.1825C101.452 67.4782 100.948 67.6479 100.428 67.6691L100.117 67.6818C99.1408 67.7216 98.217 67.2396 97.6912 66.4162C97.1768 65.6106 97.1185 64.5955 97.5371 63.7363L97.5396 63.7311C97.7571 63.2847 98.0907 62.9051 98.5068 62.6344Z" fill="#FF8F78"/>
<path d="M100.738 63.1477C100.7 63.1477 100.663 63.1288 100.642 63.0941C100.609 63.0408 100.626 62.9712 100.679 62.9382L103.717 61.0607C103.77 61.0278 103.84 61.0445 103.873 61.0975C103.906 61.1508 103.889 61.2204 103.836 61.2534L100.798 63.131C100.779 63.1424 100.759 63.1477 100.738 63.1477Z" fill="black"/>
<path d="M101.496 64.069C101.458 64.069 101.42 64.0494 101.399 64.014C101.367 63.9604 101.384 63.8907 101.438 63.8586L104.316 62.1348C104.37 62.1028 104.439 62.1203 104.471 62.1737C104.504 62.2273 104.486 62.297 104.433 62.3291L101.554 64.0529C101.536 64.0638 101.516 64.069 101.496 64.069Z" fill="black"/>
<path d="M101.813 65.7197C101.777 65.7197 101.741 65.7025 101.719 65.6706C101.684 65.619 101.697 65.5486 101.748 65.5132L104.295 63.7638C104.347 63.7283 104.417 63.7417 104.452 63.793C104.488 63.8446 104.475 63.915 104.423 63.9504L101.877 65.6998C101.857 65.7132 101.835 65.7197 101.813 65.7197Z" fill="black"/>
<path d="M116.812 51.224C117.059 51.224 117.26 51.0233 117.26 50.7758C117.26 50.5282 117.059 50.3275 116.812 50.3275C116.564 50.3275 116.363 50.5282 116.363 50.7758C116.363 51.0233 116.564 51.224 116.812 51.224Z" fill="black"/>
<path d="M75.0597 69.9569C75.0258 69.9569 74.9915 69.9479 74.9605 69.9287C74.8719 69.8737 74.8445 69.7574 74.8994 69.6688L84.096 54.8174L86.4558 54.6207C86.5619 54.6121 86.6509 54.6893 86.6595 54.7931C86.6682 54.897 86.5911 54.9882 86.4871 54.9969L84.3169 55.1777L75.2204 69.8675C75.1847 69.9252 75.1229 69.9569 75.0597 69.9569Z" fill="black"/>
<path d="M84.793 47.3374L87.2935 45.5268L90.2491 64.2845L87.368 63.68L84.793 47.3374Z" fill="#D2D2D2"/>
<path d="M61.7786 115.799C61.753 115.799 61.7271 115.794 61.7022 115.783C61.6069 115.741 61.5638 115.629 61.606 115.534L81.7947 69.9388C81.8368 69.8437 81.9481 69.8004 82.0437 69.8428C82.139 69.885 82.182 69.9963 82.1398 70.0918L61.9512 115.687C61.92 115.757 61.851 115.799 61.7786 115.799Z" fill="black"/>
<path d="M119.696 115.799C119.623 115.799 119.554 115.757 119.523 115.687L99.3346 70.0918C99.2924 69.9963 99.3353 69.885 99.4306 69.8428C99.5261 69.8 99.6374 69.8437 99.6796 69.9388L119.868 115.534C119.91 115.629 119.867 115.741 119.772 115.783C119.747 115.794 119.721 115.799 119.696 115.799Z" fill="black"/>
<path d="M118.838 69.717H62.6367V71.0689H118.838V69.717Z" fill="black"/>
<path d="M28.1976 116.02H28.9043L28.9043 74.6386H28.1976L28.1976 116.02Z" fill="black"/>
<path d="M19.5195 78.5058H40.2358V70.1529C40.2358 68.2474 38.6912 66.7028 36.7857 66.7028H22.9697C21.0642 66.7028 19.5195 68.2474 19.5195 70.1529V78.5058Z" fill="#FF5970"/>
<path d="M33.3359 78.5058H40.2362V70.1529C40.2362 68.2474 38.6915 66.7028 36.7861 66.7028C34.8806 66.7028 33.3359 68.2474 33.3359 70.1529V78.5058Z" fill="#FF5970"/>
<path d="M33.5137 78.5384H33.1602V70.1529C33.1602 68.153 34.7871 66.5261 36.787 66.5261C38.7869 66.5261 40.4139 68.153 40.4139 70.1529V78.5058H40.0603V70.1529C40.0603 68.348 38.5919 66.8797 36.787 66.8797C34.982 66.8797 33.5136 68.348 33.5136 70.1529V78.5384H33.5137Z" fill="white"/>
<path d="M27.0077 70.7241H27.9922V59.8874H27.0077V70.7241Z" fill="black"/>
<path d="M25.5359 64.953H27.9922V59.8875H25.5359C25.0738 59.8875 24.6992 60.2621 24.6992 60.7241V64.1164C24.6992 64.5785 25.0738 64.953 25.5359 64.953Z" fill="#FF5970"/>
<path d="M26.55 71.986H28.4505C28.628 71.986 28.772 71.8421 28.772 71.6645V69.5999C28.772 69.4224 28.6281 69.2784 28.4505 69.2784H26.55C26.3725 69.2784 26.2285 69.4223 26.2285 69.5999V71.6645C26.2285 71.8421 26.3724 71.986 26.55 71.986Z" fill="black"/>
<path d="M27.9431 51.4664L26.4336 56.374L26.7943 56.485L28.3039 51.5774L27.9431 51.4664Z" fill="#D2D2D2"/>
<path d="M22.3879 50.0767L22.0332 50.2062L24.4241 56.7498L24.7787 56.6202L22.3879 50.0767Z" fill="#D2D2D2"/>
<path d="M18.8007 54.1404L18.5684 54.4378L22.5949 57.5835L22.8273 57.286L18.8007 54.1404Z" fill="#D2D2D2"/>
<path d="M151 115.722H0V116.099H151V115.722Z" fill="black"/>
</g>
<defs>
<clipPath id="clip0_1_9828">
<rect width="151" height="116" fill="white"/>
</clipPath>
</defs>
</svg>
