<svg width="163" height="114" viewBox="0 0 163 114" fill="none" xmlns="http://www.w3.org/2000/svg">
<path d="M159.752 113.395H10.8921C9.30798 113.395 8.02344 112.111 8.02344 110.526C8.02344 108.942 9.3076 107.658 10.8921 107.658H159.752C161.336 107.658 162.621 108.942 162.621 110.526C162.62 112.111 161.336 113.395 159.752 113.395Z" fill="#FF7129"/>
<path d="M145.431 78.9852H51.8635C47.2975 78.9852 43.5957 75.2838 43.5957 70.7174V8.26781C43.5957 3.7018 47.2971 0 51.8635 0H145.431C149.997 0 153.699 3.70142 153.699 8.26781V70.7174C153.699 75.2834 149.997 78.9852 145.431 78.9852Z" fill="#F5F5F5"/>
<path opacity="0.5" d="M153.698 12.0048H43.5947V8.26781C43.5947 3.7018 47.2962 0 51.8625 0H145.43C149.996 0 153.698 3.70142 153.698 8.26781V12.0048H153.698Z" fill="#D6D6D6"/>
<path d="M135.275 7.81495H70.1407C69.1396 7.81495 68.3281 7.00347 68.3281 6.00239C68.3281 5.00131 69.1396 4.18982 70.1407 4.18982H135.275C136.276 4.18982 137.088 5.00131 137.088 6.00239C137.088 7.00347 136.276 7.81495 135.275 7.81495Z" fill="#F5F5F5"/>
<path d="M51.5008 6.00238C51.5008 6.82023 50.8378 7.48325 50.0199 7.48325C49.2021 7.48325 48.5391 6.82023 48.5391 6.00238C48.5391 5.18454 49.2021 4.52151 50.0199 4.52151C50.8378 4.52151 51.5008 5.18454 51.5008 6.00238Z" fill="#F5F5F5"/>
<path d="M57.0301 6.00238C57.0301 6.82023 56.3671 7.48325 55.5492 7.48325C54.7314 7.48325 54.0684 6.82023 54.0684 6.00238C54.0684 5.18454 54.7314 4.52151 55.5492 4.52151C56.3671 4.52151 57.0301 5.18454 57.0301 6.00238Z" fill="#F5F5F5"/>
<path d="M62.4676 6.00238C62.4676 6.82023 61.8046 7.48325 60.9867 7.48325C60.1689 7.48325 59.5059 6.82023 59.5059 6.00238C59.5059 5.18454 60.1689 4.52151 60.9867 4.52151C61.8046 4.52151 62.4676 5.18454 62.4676 6.00238Z" fill="#F5F5F5"/>
<path d="M106.505 29.2954L97.196 38.6043L87.8871 29.2954L82.2695 34.9129L91.5788 44.2219L82.2695 53.5308L87.8871 59.1483L97.196 49.8391L106.505 59.1483L112.123 53.5308L102.814 44.2219L112.123 34.9126L106.505 29.2954Z" fill="#D6D6D6"/>
<path d="M135.845 107.658H97.7158L100.728 64.5239C100.908 61.9507 103.139 59.8648 105.713 59.8648H134.524C137.097 59.8648 139.037 61.9507 138.858 64.5239L135.845 107.658Z" fill="#1282D6"/>
<path d="M130.236 107.658H92.1064L95.1187 64.5239C95.2982 61.9507 97.5299 59.8648 100.103 59.8648H128.915C131.488 59.8648 133.428 61.9507 133.248 64.5239L130.236 107.658Z" fill="#3897E9"/>
<path d="M114.784 59.8652C116.207 61.1909 116.767 62.4474 117.002 63.4054C117.482 65.3624 117.072 67.9819 117.071 68.0059C117.807 68.879 118.744 70.0555 119.751 71.5038C119.751 71.5038 122.001 74.7427 123.588 78.1038C125.565 82.2917 128.771 89.0802 127.275 96.3024C126.129 101.836 122.216 107.658 122.216 107.658H100.521L103.18 59.8596L114.784 59.8652Z" fill="#1282D6"/>
<path d="M74.191 32.8079C74.2976 32.4661 76.0429 27.1014 80.1422 25.2746C82.104 24.4007 84.3152 24.3169 84.3152 24.3169C84.5436 24.3083 85.4875 24.2799 86.759 24.4885C86.759 24.4885 89.693 24.8438 91.8324 26.3606C95.5971 29.0302 97.7787 35.7143 97.3775 41.5275C97.2346 43.5943 96.7444 45.7173 98.0884 47.3055C98.8135 48.1622 100.016 48.4468 101.722 48.9696C105.266 50.0556 111.097 51.4276 113.441 56.1724C115.785 60.9171 116.07 67.6054 114.527 69.4347C112.983 71.2641 76.1479 71.0925 74.8436 69.6632C73.5392 68.234 71.1384 61.3173 70.8523 55.8291C70.5981 50.9508 74.0156 48.9303 74.8436 42.9171C75.4202 38.7295 74.8006 35.1609 74.191 32.8079Z" fill="#262626"/>
<path d="M95.2051 32.2773C95.9115 33.655 96.9245 35.8766 97.6631 38.7516C98.8298 43.2941 97.9084 44.0188 98.9779 45.7682C101.353 49.6532 106.508 47.2808 111.44 51.7133C114.206 54.1994 115.164 57.2643 115.487 58.3447C116.89 63.0345 115.581 67.0571 115.028 68.5096" stroke="#262626" stroke-miterlimit="10" stroke-linecap="round" stroke-linejoin="round"/>
<path d="M75.5395 41.3667C74.8492 42.9231 73.7363 45.3871 72.2812 48.3982C69.6235 53.8976 68.8819 54.8968 69.0828 56.8578C69.4309 60.2549 72.3283 63.8127 72.3283 63.8127" stroke="#262626" stroke-miterlimit="10" stroke-linecap="round" stroke-linejoin="round"/>
<path d="M81.1747 53.294C81.1747 53.294 90.628 53.294 90.6695 53.294C98.1767 53.294 106.4 58.667 111.338 63.9163C115.287 68.1154 118.178 73.2199 120.371 78.5514C123.227 85.4958 126.024 95.1177 122.53 102.304C122.009 103.377 120.826 105.731 118.318 107.001C115.559 108.398 112.677 107.563 111.783 107.563C105.952 107.563 54.2749 107.579 54.2749 107.579C52.8939 94.1551 55.5546 84.0411 57.4764 78.5234C59.2616 73.3968 61.3498 67.6087 66.7995 62.1123C72.0188 56.8489 77.7732 54.423 81.1747 53.294Z" fill="#FEC02D"/>
<path d="M80.7426 53.294L74.1113 107.811L69.8242 107.778L76.4649 54.9948L80.7426 53.294Z" fill="#EAA418"/>
<path d="M85.9032 57.3062C88.5628 57.3163 90.7269 55.1687 90.737 52.5091L90.7762 42.1468L81.1457 42.1101L81.1065 52.4728C81.0964 55.1321 83.244 57.2961 85.9032 57.3062Z" fill="#F7A99C"/>
<path d="M81.1172 49.5721L87.3896 46.3497C87.326 46.8927 86.9696 49.4367 84.7323 51.1936C83.3038 52.3154 81.8027 52.5716 81.1094 52.6441L81.1172 49.5721Z" fill="#FF7769"/>
<path d="M91.0092 38.9364C91.0395 38.7797 91.452 38.5433 91.5788 38.4622C91.7931 38.3253 92.0245 38.2161 92.2665 38.138C92.7365 37.9869 93.2526 37.9517 93.7354 38.0624C94.6957 38.2827 95.5468 39.0893 95.7065 40.0773C95.7992 40.6513 95.6669 41.2448 95.4208 41.7717C95.051 42.5637 94.4238 43.2294 93.6662 43.6658C93.0383 44.0274 92.3241 44.232 91.602 44.275C91.4572 44.2836 89.9775 44.2492 89.9883 44.1927C90.329 42.4407 90.6693 40.6887 91.0092 38.9364Z" fill="#F7A99C"/>
<path d="M92.3299 39.0366C92.2158 39.8099 91.5363 43.8879 87.8607 46.7693C87.1835 47.2999 82.6818 50.8286 78.5634 49.1065C73.2708 46.8938 73.8482 38.2008 73.8856 37.73C74.0116 36.1384 74.3833 31.4509 78.2654 28.9499C81.4335 26.9088 84.8668 27.6593 85.3537 27.7738C85.8668 27.8946 89.1351 28.7191 91.1351 31.9236C92.9495 34.8315 92.5161 37.7715 92.3299 39.0366Z" fill="#F7A99C"/>
<path d="M76.8886 37.736C76.8033 38.4147 76.2801 38.9076 75.7196 38.8373C75.159 38.767 74.7742 38.1597 74.8595 37.4809C74.9447 36.8022 75.4679 36.309 76.0285 36.3796C76.5887 36.4503 76.9738 37.0572 76.8886 37.736Z" fill="#262626"/>
<path d="M83.0044 38.5041C82.9191 39.1828 82.396 39.6757 81.8358 39.6054C81.2756 39.5351 80.8904 38.9278 80.9757 38.249C81.0609 37.5703 81.5841 37.0774 82.1443 37.1477C82.7045 37.218 83.0897 37.8253 83.0044 38.5041Z" fill="#262626"/>
<path d="M78.7355 38.7516L77.798 40.0179C77.6256 40.2505 77.6903 40.581 77.9378 40.7318L78.7987 41.2557" stroke="#262626" stroke-width="1.3478" stroke-miterlimit="10" stroke-linecap="round" stroke-linejoin="round"/>
<path d="M85.0557 41.7007C84.9599 42.462 84.2651 43.002 83.5037 42.9063C82.7424 42.8106 82.2024 42.1158 82.2981 41.3544C82.3938 40.593 83.0887 40.053 83.85 40.1488C84.6118 40.2445 85.1514 40.9393 85.0557 41.7007Z" fill="#FF7769"/>
<path d="M91.6561 42.4187C91.6516 42.2661 91.6385 41.2321 92.4683 40.4861C93.1183 39.9016 93.8744 39.8634 94.0808 39.8597" stroke="#262626" stroke-width="1.3478" stroke-miterlimit="10" stroke-linecap="round" stroke-linejoin="round"/>
<path d="M92.3877 40.6902C92.4337 40.6831 92.9901 40.6057 93.3783 41.0264C93.6977 41.372 93.6685 41.7998 93.6625 41.8708" stroke="#262626" stroke-width="1.3478" stroke-miterlimit="10" stroke-linecap="round" stroke-linejoin="round"/>
<path d="M74.6066 39.5029C74.3433 39.47 74.0898 39.5171 73.8643 39.6189C73.8912 40.3649 73.963 41.2699 74.1268 42.2298C74.1713 42.2399 74.2139 42.2545 74.2603 42.2605C75.0216 42.3562 75.7168 41.8162 75.8122 41.0549C75.9079 40.2935 75.3683 39.5987 74.6066 39.5029Z" fill="#FF7769"/>
<path d="M77.4609 43.7944C77.6214 43.5996 78.1202 43.0454 78.9829 42.8296C79.9605 42.5854 80.745 42.9407 80.9552 43.0439" stroke="#262626" stroke-width="1.3478" stroke-miterlimit="10" stroke-linecap="round" stroke-linejoin="round"/>
<path d="M73.4531 35.3355H79.5127C79.5127 35.3355 79.7412 33.3633 80.3418 32.3914C80.9424 31.4195 81.8567 30.8193 81.8567 30.8193C81.7191 31.1674 81.5624 31.6285 81.4423 32.1842C81.3567 32.5806 81.2426 33.1064 81.2494 33.7918C81.2494 33.7918 81.252 34.0514 81.3993 35.3352H86.6587C86.5379 35.0151 86.2787 34.1998 86.5016 33.1916C86.6961 32.3117 87.1579 31.7321 87.3894 31.4767C87.2114 33.0548 87.4111 34.312 87.6018 35.1067C87.9342 36.4922 88.4884 37.5112 88.9024 38.2722C89.2999 39.0033 89.6899 39.5871 89.9895 40.0036C89.9895 40.0036 90.7034 39.102 91.2819 38.7516C91.8608 38.4012 92.452 38.0856 92.452 38.0856C92.5847 37.3964 92.704 36.3493 92.5182 35.1071C92.136 32.5499 90.7176 30.8791 90.1245 30.2553C88.113 28.1395 85.7062 27.6642 84.8296 27.5041C82.9595 27.1627 81.4599 27.4477 80.9424 27.5614C80.5377 27.6504 79.5987 27.8841 78.5057 28.4547C77.7473 28.8504 75.5989 30.0029 74.3256 32.5279C74.0238 33.1251 73.6296 34.0761 73.4531 35.3355Z" fill="#262626"/>
<path d="M79.8916 53.745C79.8916 53.745 74.025 77.7807 73.3392 85.841C72.6533 93.9012 72.396 107.811 72.396 107.811L54.2745 107.58C53.9054 104.977 53.5752 101.437 53.7027 97.2455C54.0015 87.4486 56.6181 80.1624 57.6472 77.5234C60.0697 71.3101 62.9948 63.8071 70.5951 58.3159C74.1095 55.7771 77.5282 54.4593 79.8916 53.745Z" fill="#FDB6D6"/>
<path d="M67.9371 68.9202L60.3906 107.658H64.9073L67.9371 68.9202Z" fill="#FF94CA"/>
<path d="M69.2519 62.0031C68.8375 64.3332 68.1898 68.228 67.6106 73.0947C66.9012 79.0552 67.0077 80.4852 65.841 95.719C65.4914 100.286 64.9072 107.658 64.9072 107.658" stroke="#262626" stroke-miterlimit="10" stroke-linecap="round" stroke-linejoin="round"/>
<path d="M85.7083 99.0035C86.3934 99.7136 86.7883 100.396 87.016 100.868C87.7314 102.353 87.7561 103.765 87.7736 104.763C87.7841 105.357 87.7501 105.851 87.7164 106.192C87.7164 106.192 78.8559 103.334 77.5411 103.448C76.3825 103.549 70.6094 105.025 69.2523 105.375C69.0638 105.424 68.8675 105.418 68.6813 105.361L66.7367 104.763L64.9032 104.841C64.245 104.869 63.794 104.196 64.0622 103.594C64.1287 103.445 64.2181 103.282 64.3359 103.105C65.1362 101.905 65.9364 101.047 65.9364 101.047L62.9983 101.577C62.7133 101.578 62.2466 101.539 62.0866 101.253C61.848 100.827 62.4343 100.107 62.8352 99.6254C63.7652 98.5076 64.7817 97.9063 65.1074 97.7175C66.2554 97.0518 67.3261 96.431 69.0803 95.9026C70.4628 95.4861 74.2697 94.2771 78.9557 95.4666C82.0267 96.2459 84.2816 97.7863 85.7083 99.0035Z" fill="#F7A99C"/>
<path d="M85.2392 98.6176C85.2781 98.9175 85.4838 100.743 84.1716 102.305C82.709 104.045 80.5842 104.002 80.3262 103.992L87.7159 106.192C87.7159 106.192 87.7705 103.549 87.64 102.899C87.5095 102.249 87.0544 100.748 86.5855 100.106C86.1165 99.4638 85.2392 98.6176 85.2392 98.6176Z" fill="#FF7769"/>
<path d="M66.7363 104.763C67.5867 103.832 69.0534 102.456 71.2287 101.37C73.2787 100.347 75.147 99.9859 76.3687 99.8464" stroke="#262626" stroke-miterlimit="10" stroke-linecap="round" stroke-linejoin="round"/>
<path d="M64.9033 104.841C66.244 102.555 67.7278 101.366 68.8231 100.704C68.8231 100.704 69.6324 100.215 73.8824 98.6176" stroke="#262626" stroke-miterlimit="10" stroke-linecap="round" stroke-linejoin="round"/>
<path d="M65.8027 101.071C66.8809 99.4799 68.0065 98.741 68.8232 98.3603C70.2756 97.6827 72.4816 97.3311 72.4816 97.3311" stroke="#262626" stroke-miterlimit="10" stroke-linecap="round" stroke-linejoin="round"/>
<path d="M91.655 53.294C91.655 53.294 89.8025 67.062 89.5452 75.2939C89.2879 83.5258 89.0246 97.5884 89.0246 97.5884L85.708 99.0035C85.708 99.0035 87.291 103.677 87.3889 105.135C87.4873 106.592 87.3889 107.811 87.3889 107.811C92.2395 107.717 96.1814 107.837 98.8915 107.964C101.197 108.073 104.63 108.094 111.496 108.136C113.938 108.151 116.001 108.14 118.317 107.001C118.592 106.866 120.918 105.692 122.644 103.334C123.761 101.807 125.514 98.5712 124.53 90.5573C124.116 87.1853 122.679 76.6364 114.497 66.6334C109.823 60.9186 105.21 58.148 103.927 57.4102C100.035 55.1732 96.6115 54.2618 95.9006 54.0779C94.2069 53.6407 92.7421 53.4171 91.655 53.294Z" fill="#FDB6D6"/>
<path d="M102.79 79.6101C102.878 81.7645 102.731 85.6308 100.75 89.8143C99.6905 92.0524 98.4037 93.7524 97.3203 94.9565C99.6833 94.3477 102.046 93.7386 104.409 93.1298L102.79 79.6101Z" fill="#FF94CA"/>
<path d="M112.469 91.3292C112.469 91.3292 91.7717 96.4168 89.0246 97.5888C86.2776 98.7608 85.708 99.0039 85.708 99.0039" stroke="#262626" stroke-miterlimit="10" stroke-linecap="round" stroke-linejoin="round"/>
<path d="M114.069 69.8921C114.069 69.8921 124.245 89.0424 121.215 96.8742C120.751 98.0716 119.728 100.662 117.169 102.544C114.768 104.308 112.182 104.587 107.724 104.706C103.826 104.81 98.6413 104.787 92.4609 104.306" stroke="white" stroke-miterlimit="10" stroke-linecap="round" stroke-linejoin="round"/>
<path d="M111.094 62.923C106.896 64.5853 104.94 66.826 103.951 68.3488C103.951 68.3488 100.919 73.0202 104.655 93.2846" stroke="#262626" stroke-miterlimit="10" stroke-linecap="round" stroke-linejoin="round"/>
<path d="M86.6533 108.138H58.877V104.811H88.0886V106.703C88.0886 107.496 87.4461 108.138 86.6533 108.138Z" fill="#374ACC"/>
<path d="M61.9163 108.138H23.5872C22.711 108.138 21.9141 107.428 21.8068 106.552L18.3264 78.0836C18.2194 77.2075 18.8428 76.4973 19.7186 76.4973H58.0481C58.9242 76.4973 59.7211 77.2075 59.8285 78.0836L63.3085 106.552C63.4158 107.428 62.7924 108.138 61.9163 108.138Z" fill="#374ACC"/>
<path d="M59.6731 108.138H21.3441C20.4679 108.138 19.671 107.428 19.5636 106.552L16.0832 78.0836C15.9763 77.2075 16.5997 76.4973 17.4755 76.4973H55.8049C56.6811 76.4973 57.478 77.2075 57.5853 78.0836L61.0653 106.552C61.1727 107.428 60.5493 108.138 59.6731 108.138Z" fill="#4450E4"/>
<path d="M16.0829 78.0836C16.3603 78.0077 17.376 86.8832 23.1764 94.8732C24.1798 96.2549 25.9897 98.7107 29.0644 101.104C29.0644 101.104 32.191 103.538 43.8417 108.138C43.2138 108.138 42.5855 108.138 41.9577 108.138C40.4129 108.138 38.868 108.138 37.3229 108.138C35.3674 108.138 33.412 108.138 31.4566 108.138C29.5973 108.138 27.738 108.138 25.8783 108.138C24.8806 108.138 23.8832 108.139 22.8855 108.139C22.0909 108.138 21.1021 108.316 20.3927 107.872C19.8056 107.505 19.5491 106.778 19.4649 106.091C19.4055 105.605 19.4122 105.113 19.3576 104.626C19.3034 104.144 19.2103 103.666 19.1516 103.184C19.0229 102.131 18.8939 101.077 18.7653 100.024C18.5547 98.3016 18.3442 96.5792 18.1333 94.8563C17.9063 92.9985 17.6789 91.1407 17.4519 89.2833C17.241 87.5582 17.0301 85.8331 16.8192 84.1085C16.6573 82.7843 16.5193 81.4567 16.3334 80.1352C16.1206 78.6191 16.0152 78.102 16.0829 78.0836Z" fill="#5D6FF4"/>
<path d="M17.4756 76.4973H55.805C56.6812 76.4973 57.4781 77.2075 57.5854 78.0836L61.0655 106.552" stroke="#262626" stroke-miterlimit="10" stroke-linecap="round" stroke-linejoin="round"/>
<path d="M39.6833 91.5248C39.6833 92.7442 38.6949 93.733 37.4754 93.733C36.2559 93.733 35.2676 92.7442 35.2676 91.5248C35.2676 90.3053 36.2559 89.3169 37.4754 89.3169C38.6945 89.3166 39.6833 90.3053 39.6833 91.5248Z" fill="#FEC02D"/>
<path d="M121.501 62.4604H125.757C127.625 62.4604 129.099 64.049 128.959 65.9121L127.66 83.2113" stroke="white" stroke-miterlimit="10" stroke-linecap="round" stroke-linejoin="round"/>
<path d="M48.6738 82.4944H4.41121C2.25124 82.4944 0.5 80.7436 0.5 78.5832V49.0414C0.5 46.8814 2.25124 45.1302 4.41121 45.1302H48.6738C50.8338 45.1302 52.585 46.8814 52.585 49.0414V78.5832C52.585 80.7436 50.8338 82.4944 48.6738 82.4944Z" fill="#F5F5F5"/>
<path opacity="0.5" d="M52.585 50.8091H0.5V49.0414C0.5 46.8814 2.25124 45.1302 4.41121 45.1302H48.6738C50.8338 45.1302 52.585 46.8814 52.585 49.0414V50.8091Z" fill="#D6D6D6"/>
<path d="M43.8698 48.8271H13.0577C12.5842 48.8271 12.2002 48.4431 12.2002 47.9697C12.2002 47.4962 12.5842 47.1122 13.0577 47.1122H43.8698C44.3433 47.1122 44.7273 47.4962 44.7273 47.9697C44.7273 48.4435 44.3436 48.8271 43.8698 48.8271Z" fill="#F5F5F5"/>
<path d="M4.24106 47.9696C4.24106 48.3567 3.92731 48.6704 3.54064 48.6704C3.15359 48.6704 2.83984 48.3567 2.83984 47.9696C2.83984 47.5826 3.15359 47.2692 3.54064 47.2692C3.92731 47.2692 4.24106 47.583 4.24106 47.9696Z" fill="#F5F5F5"/>
<path d="M6.85532 47.9696C6.85532 48.3567 6.54157 48.6704 6.15452 48.6704C5.76748 48.6704 5.4541 48.3567 5.4541 47.9696C5.4541 47.5826 5.76785 47.2692 6.15452 47.2692C6.54157 47.2692 6.85532 47.583 6.85532 47.9696Z" fill="#F5F5F5"/>
<path d="M9.42758 47.9696C9.42758 48.3567 9.11383 48.6704 8.72716 48.6704C8.34012 48.6704 8.02637 48.3567 8.02637 47.9696C8.02637 47.5826 8.34012 47.2692 8.72716 47.2692C9.11383 47.2692 9.42758 47.583 9.42758 47.9696Z" fill="#F5F5F5"/>
<path d="M30.2597 58.9886L25.856 63.3924L21.4523 58.9886L18.7949 61.646L23.1986 66.0497L18.7949 70.453L21.4523 73.1107L25.856 68.707L30.2597 73.1107L32.917 70.453L28.5133 66.0497L32.917 61.646L30.2597 58.9886Z" fill="#D6D6D6"/>
<path d="M48.6738 82.4944H4.41121C2.25124 82.4944 0.5 80.7436 0.5 78.5832V49.0414C0.5 46.8814 2.25124 45.1302 4.41121 45.1302H48.6738C50.8338 45.1302 52.585 46.8814 52.585 49.0414V78.5832C52.585 80.7436 50.8338 82.4944 48.6738 82.4944Z" stroke="#262626" stroke-miterlimit="10" stroke-linecap="round" stroke-linejoin="round"/>
<path d="M66.9277 24.8416L72.7128 27.2416" stroke="#FF7129" stroke-miterlimit="10" stroke-linecap="round" stroke-linejoin="round"/>
<path d="M66.6777 18.5093L73.9998 25.4631" stroke="#FF7129" stroke-miterlimit="10" stroke-linecap="round" stroke-linejoin="round"/>
<path d="M73.04 18.4061L75.7351 24.06" stroke="#FF7129" stroke-miterlimit="10" stroke-linecap="round" stroke-linejoin="round"/>
<path d="M143.1 49.4707C143.625 48.0953 144.152 47.0276 144.682 46.2685C145.212 45.5094 145.914 44.8953 146.786 44.4275C147.296 44.1411 147.83 43.9313 148.389 43.797C148.947 43.6632 149.478 43.4982 149.98 43.3023C150.481 43.1067 150.941 42.8476 151.358 42.526C151.774 42.204 152.112 41.7055 152.37 41.029C152.805 39.8869 152.795 38.9681 152.339 38.2733C151.883 37.5785 151.223 37.0666 150.361 36.7375C149.125 36.2659 148.143 36.2857 147.415 36.7955C146.685 37.3055 146.041 38.1211 145.48 39.2422L140.969 37.5213C141.404 36.3792 141.986 35.4126 142.715 34.622C143.444 33.8318 144.277 33.2414 145.214 32.851C146.15 32.4605 147.169 32.2751 148.271 32.2945C149.371 32.3136 150.505 32.5458 151.671 32.9904C154.188 33.9508 155.98 35.2222 157.046 36.8037C158.112 38.3855 158.205 40.3301 157.324 42.6385C157.04 43.3849 156.715 44.0083 156.35 44.5102C155.985 45.0116 155.564 45.432 155.088 45.7712C154.611 46.11 154.076 46.3934 153.482 46.6208C152.887 46.8485 152.231 47.065 151.511 47.2711C150.847 47.4719 150.293 47.6813 149.849 47.899C149.406 48.117 149.03 48.3817 148.726 48.6921C148.42 49.0029 148.166 49.3537 147.964 49.7437C147.761 50.1341 147.563 50.5858 147.367 51.0985L143.1 49.4707ZM140.386 56.1671L142.133 51.5858L146.854 53.3868L145.107 57.9681L140.386 56.1671Z" fill="#FDB6D6"/>
<path d="M21.367 25.7865C21.0327 24.9313 20.8285 24.2174 20.7549 23.6445C20.6812 23.0716 20.7478 22.4942 20.9546 21.912C21.0701 21.5661 21.2283 21.2452 21.4302 20.9487C21.6318 20.6529 21.8076 20.3541 21.9575 20.053C22.1071 19.7524 22.2107 19.4401 22.2683 19.117C22.3255 18.7939 22.2724 18.4222 22.1079 18.0015C21.83 17.2914 21.4403 16.8714 20.9381 16.7417C20.4359 16.6119 19.9168 16.6523 19.381 16.8621C18.6125 17.1627 18.1671 17.5834 18.0444 18.1242C17.9218 18.6653 17.9659 19.3122 18.1768 20.0654L15.3721 21.1622C15.0943 20.4521 14.9578 19.7617 14.963 19.0912C14.9683 18.4211 15.1051 17.7992 15.374 17.2259C15.6429 16.653 16.0355 16.14 16.552 15.6871C17.068 15.2346 17.6888 14.8663 18.4139 14.5828C19.9793 13.9706 21.3397 13.8065 22.4953 14.0896C23.6504 14.3734 24.509 15.2324 25.07 16.6672C25.2513 17.1313 25.3628 17.5554 25.405 17.9402C25.4465 18.325 25.4286 18.6956 25.3508 19.052C25.2726 19.4083 25.1444 19.7636 24.9653 20.1177C24.7861 20.4722 24.5737 20.8473 24.328 21.2445C24.1055 21.6158 23.9376 21.9449 23.8239 22.2313C23.7106 22.5182 23.6482 22.7975 23.6377 23.0686C23.6269 23.3405 23.6568 23.609 23.7267 23.8734C23.7966 24.1385 23.8946 24.4306 24.0191 24.7492L21.367 25.7865ZM22.9212 30.0171L21.8072 27.1691L24.7424 26.021L25.8564 28.8691L22.9212 30.0171Z" fill="#FDB6D6"/>
<path d="M152.475 107.658H140.544L139.748 94.9565H153.27L152.475 107.658Z" fill="#FEC02D"/>
<path d="M151.652 94.9565H141.367V84.1279C141.367 81.2877 143.67 78.9852 146.51 78.9852C149.35 78.9852 151.652 81.2877 151.652 84.1279V94.9565Z" fill="#94E261"/>
<mask id="mask0_1_3165" style="mask-type:luminance" maskUnits="userSpaceOnUse" x="141" y="78" width="11" height="17">
<path d="M151.652 94.9565H141.367V84.1279C141.367 81.2877 143.67 78.9852 146.51 78.9852C149.35 78.9852 151.652 81.2877 151.652 84.1279V94.9565Z" fill="white"/>
</mask>
<g mask="url(#mask0_1_3165)">
<path d="M143.246 80.5529C143.246 81.9926 142.382 81.9926 142.382 83.4327C142.382 84.8732 143.246 84.8732 143.246 86.3133C143.246 87.753 142.382 87.753 142.382 89.1931C142.382 90.634 143.246 90.634 143.246 92.0748C143.246 93.5157 142.382 93.5157 142.382 94.9565" stroke="#262626" stroke-width="0.5" stroke-miterlimit="10" stroke-linecap="round" stroke-linejoin="round"/>
<path d="M145.508 79.2003C145.508 80.7754 144.562 80.7754 144.562 82.3505C144.562 83.9259 145.508 83.9259 145.508 85.5018C145.508 87.0769 144.562 87.0769 144.562 88.652C144.562 90.2282 145.508 90.2282 145.508 91.8045C145.508 93.3807 144.562 93.3807 144.562 94.9569" stroke="#262626" stroke-width="0.5" stroke-miterlimit="10" stroke-linecap="round" stroke-linejoin="round"/>
<path d="M148.836 79.3311C148.836 80.8932 147.898 80.8932 147.898 82.4552C147.898 84.0176 148.836 84.0176 148.836 85.5803C148.836 87.1423 147.898 87.1424 147.898 88.7044C147.898 90.2675 148.836 90.2675 148.836 91.8306C148.836 93.3938 147.898 93.3938 147.898 94.9569" stroke="#262626" stroke-width="0.5" stroke-miterlimit="10" stroke-linecap="round" stroke-linejoin="round"/>
<path d="M151.16 81.2144C151.16 82.5879 150.335 82.5879 150.335 83.9618C150.335 85.3361 151.16 85.3361 151.16 86.71C151.16 88.0836 150.335 88.0836 150.335 89.4575C150.335 90.8322 151.16 90.8322 151.16 92.2068C151.16 93.5815 150.335 93.5815 150.335 94.9562" stroke="#262626" stroke-width="0.5" stroke-miterlimit="10" stroke-linecap="round" stroke-linejoin="round"/>
</g>
<path d="M153.271 94.9565L152.475 107.658H140.545C142.138 107.226 145.274 106.145 148.216 103.378C151.603 100.192 152.832 96.5582 153.271 94.9565Z" fill="#EAA418"/>
<path d="M152.587 96.9748C152.103 98.1785 151.285 99.8355 149.908 101.548C148.532 103.258 147.089 104.41 146.018 105.141" stroke="#262626" stroke-width="0.5" stroke-miterlimit="10" stroke-linecap="round" stroke-linejoin="round"/>
</svg>
